<svg width="184" height="200" viewBox="0 0 184 200" fill="none" xmlns="http://www.w3.org/2000/svg">
<line x1="12.3798" y1="152.586" x2="12.3798" y2="116.942" stroke="#FAFCFC" stroke-width="15" stroke-linecap="round"/>
<line x1="48.8605" y1="165.891" x2="48.8606" y2="103.208" stroke="#FAFCFC" stroke-width="15" stroke-linecap="round"/>
<line x1="85.7704" y1="179.195" x2="85.7704" y2="89.9035" stroke="#FAFCFC" stroke-width="15" stroke-linecap="round"/>
<line x1="123.109" y1="192.5" x2="123.109" y2="76.5987" stroke="#FAFCFC" stroke-width="15" stroke-linecap="round"/>
<path d="M0 88.1714C0 90.3805 1.79086 92.1714 4 92.1714C6.20914 92.1714 8 90.3805 8 88.1714H0ZM144.481 167.034C142.36 166.415 140.14 167.633 139.521 169.754C138.903 171.875 140.121 174.096 142.242 174.714L144.481 167.034ZM154.368 174.083L155.488 170.242L154.368 174.083ZM29.9755 8.13228L28.7804 11.9496L29.9755 8.13228ZM28.7804 11.9496L164.746 54.517L167.136 46.8824L31.1706 4.31499L28.7804 11.9496ZM175.966 69.7862V154.882H183.966V69.7862H175.966ZM8 88.1714V27.2188H0V88.1714H8ZM155.488 170.242L144.481 167.034L142.242 174.714L153.249 177.923L155.488 170.242ZM175.966 154.882C175.966 165.548 165.727 173.228 155.488 170.242L153.249 177.923C168.608 182.4 183.966 170.881 183.966 154.882H175.966ZM164.746 54.517C171.422 56.607 175.966 62.7911 175.966 69.7862H183.966C183.966 59.2936 177.15 50.0174 167.136 46.8824L164.746 54.517ZM31.1706 4.31499C15.7138 -0.52416 0 11.0221 0 27.2188H8C8 16.421 18.4758 8.72348 28.7804 11.9496L31.1706 4.31499Z" fill="#FAFCFC"/>
</svg>
