<svg width="124" height="130" viewBox="0 0 124 130" fill="none" xmlns="http://www.w3.org/2000/svg">
<line x1="7.63281" y1="96.5557" x2="7.63281" y2="78.6372" stroke="#FF9100" stroke-width="15" stroke-linecap="round"/>
<line x1="31.3455" y1="105.204" x2="31.3455" y2="69.7103" stroke="#FF9100" stroke-width="15" stroke-linecap="round"/>
<line x1="55.3367" y1="113.852" x2="55.3367" y2="61.0623" stroke="#FF9100" stroke-width="15" stroke-linecap="round"/>
<line x1="79.6072" y1="122.5" x2="79.6072" y2="52.4142" stroke="#FF9100" stroke-width="15" stroke-linecap="round"/>
<path d="M0.811035 57.3114C0.811035 59.5206 2.6019 61.3114 4.81104 61.3114C7.02017 61.3114 8.81104 59.5206 8.81104 57.3114H0.811035ZM42.5792 16.0157L96.9569 33.04L99.3471 25.4054L44.9694 8.38113L42.5792 16.0157ZM115.189 57.8524V93.2212H123.189V57.8524H115.189ZM8.81104 57.3114V40.8281H0.811035V57.3114H8.81104ZM115.189 93.2212C115.189 102.947 105.853 109.95 96.5156 107.228L94.2766 114.908C108.733 119.123 123.189 108.28 123.189 93.2212H115.189ZM96.9569 33.04C107.805 36.4362 115.189 46.4854 115.189 57.8524H123.189C123.189 42.9879 113.533 29.8466 99.3471 25.4054L96.9569 33.04ZM44.9694 8.38113C23.0722 1.52567 0.811035 17.8829 0.811035 40.8281H8.81104C8.81104 23.2818 25.8343 10.7733 42.5792 16.0157L44.9694 8.38113Z" fill="#FF9100"/>
</svg>
