<svg width="250" height="200" viewBox="0 0 250 200" fill="none" xmlns="http://www.w3.org/2000/svg">
<path d="M81.2504 137.5C80.3168 137.5 79.3833 137.637 78.4926 137.926C73.4301 139.57 68.1059 140.625 62.5005 140.625C56.895 140.625 51.5708 139.57 46.5044 137.926C45.6138 137.637 44.6841 137.5 43.7505 137.5C19.5084 137.5 -0.128275 157.219 0.000631045 181.492C0.0553184 191.75 8.48889 200 18.7506 200H106.25C116.512 200 124.946 191.75 125 181.492C125.129 157.219 105.493 137.5 81.2504 137.5ZM62.5005 125C83.2114 125 100 108.211 100 87.5C100 66.7891 83.2114 50 62.5005 50C41.7896 50 25.0006 66.7891 25.0006 87.5C25.0006 108.211 41.7896 125 62.5005 125ZM231.25 0H81.2504C70.9106 0 62.5005 8.69141 62.5005 19.3711V37.5C71.6489 37.5 80.1176 40.1484 87.5004 44.4531V25H225V137.5H200V112.5H150V137.5H120.219C127.68 144.02 133.157 152.629 135.723 162.5H231.25C241.59 162.5 250 153.809 250 143.129V19.3711C250 8.69141 241.59 0 231.25 0Z" fill="#FAFCFC"/>
</svg>
