<svg width="116" height="130" viewBox="0 0 116 130" fill="none" xmlns="http://www.w3.org/2000/svg">
<path d="M37.984 89.375C37.5569 89.375 37.1297 89.4639 36.7223 89.6518C34.4061 90.7207 31.9702 91.4062 29.4057 91.4062C26.8411 91.4062 24.4052 90.7207 22.0873 89.6518C21.6798 89.4639 21.2545 89.375 20.8274 89.375C9.73634 89.375 0.752348 102.192 0.811324 117.97C0.836344 124.637 4.69479 130 9.38963 130H49.4217C54.1166 130 57.975 124.637 58 117.97C58.059 102.192 49.075 89.375 37.984 89.375ZM29.4057 81.25C38.8811 81.25 46.5623 70.3371 46.5623 56.875C46.5623 43.4129 38.8811 32.5 29.4057 32.5C19.9302 32.5 12.2491 43.4129 12.2491 56.875C12.2491 70.3371 19.9302 81.25 29.4057 81.25ZM106.61 0H37.984C33.2534 0 29.4057 5.64941 29.4057 12.5912V24.375C33.5912 24.375 37.4657 26.0965 40.8434 28.8945V16.25H103.751V89.375H92.3132V73.125H69.4378V89.375H55.8126C59.226 93.6127 61.7316 99.2088 62.9057 105.625H106.61C111.341 105.625 115.189 99.9756 115.189 93.0338V12.5912C115.189 5.64941 111.341 0 106.61 0Z" fill="#FF9100"/>
</svg>
