<?xml version="1.0" encoding="UTF-8"?>
<!DOCTYPE svg PUBLIC "-//W3C//DTD SVG 1.1//EN" "http://www.w3.org/Graphics/SVG/1.1/DTD/svg11.dtd">
<!-- Creator: CorelDRAW 2018 (64 Bit Versión de evaluación) -->
<svg xmlns="http://www.w3.org/2000/svg" xml:space="preserve" width="500mm" height="610mm" version="1.1" style="shape-rendering:geometricPrecision; text-rendering:geometricPrecision; image-rendering:optimizeQuality; fill-rule:evenodd; clip-rule:evenodd"
viewBox="0 0 14800 21000"
 xmlns:xlink="http://www.w3.org/1999/xlink">
 <defs>
  <style type="text/css">
   <![CDATA[
    .fil0 {fill:#ffffff}
   ]]>
  </style>
 </defs>
 <g id="Capa_x0020_1">
  <metadata id="CorelCorpID_0Corel-Layer"/>
  <path class="fil0" d="M4041.52 9150.55c0,387.47 169.44,1840.63 733.41,1284.96 195.44,-192.56 951.18,-982.99 1093.3,-1078.16 73.35,53.74 191.47,231.97 260.98,324.95 342.55,458.2 286.17,385.92 953.96,-281.86 164.05,-164.05 482.12,-519.11 646.25,-629.02l0 654.86c496.51,0 379.13,173.57 379.13,-1102.92 0,-93.09 -16.46,-95.03 -34.47,-172.33 -317.06,-73.86 -921.79,-34.47 -1275.26,-34.47l0 379.13 585.93 0 -922.13 939.05c-129.55,-89.54 -432.02,-594.38 -525.45,-594.38 -175.26,0 -272,150.98 -370.53,249.87l-973.66 956.45c-330.63,-689.07 -152.45,-1628 317.95,-2198.09 605.91,-734.33 1604.61,-1034.32 2514.08,-668.41 717.5,288.67 1372.86,1047.09 1372.86,1866.98 0,482.43 2.2,730.65 -228.96,1184.15 -101.24,198.61 -293.34,461.78 -460.36,573.63l0 -1033.99 -379.13 0 0 1206.32c0,204.51 -118.33,190.43 -344.67,310.2l2.98 -933.58c2.05,-264.58 19.79,-238.28 -313.17,-238.28 -79.42,0 -103.4,23.98 -103.4,103.4l0 1171.86c-260.57,0 -192.82,21.83 -344.67,34.46l0 -723.79 -379.13 0 0 689.33c-401.15,-192.49 -344.66,264.97 -344.66,-1068.46l-379.13 0 0 758.26c-195.67,-16.28 -93.11,-87.29 -310.2,-137.87 -63.48,42.52 -196.44,208.79 -241.26,275.73 214.12,143.39 400.9,292.59 668.81,399.65 2216.86,885.85 4313.12,-1457 3341.5,-3479.36 -254.93,-530.61 -731.74,-1006.37 -1252.4,-1263.65 -978.37,-483.44 -2123.12,-238.7 -2939.29,508.55 -63.79,58.4 -83.09,103.54 -139.51,170.69 -371.41,442.05 -609.7,958.9 -609.7,1596.14z"/>
 </g>
</svg>
