<svg width="116" height="130" viewBox="0 0 116 130" fill="none" xmlns="http://www.w3.org/2000/svg">
<path d="M114.146 25.621L90.4374 52.1873C90.4374 52.1873 83.3521 52.1873 76.2669 44.1556C69.1817 36.1239 69.1817 28.0923 69.1817 28.0923L92.89 1.21702C79.537 -2.48991 63.459 2.45266 53.6487 13.5735C38.9333 30.2546 52.0137 51.5695 48.1986 55.8942C27.4879 80.2982 6.23225 98.8328 5.68723 99.7596C-0.580462 106.865 -0.852972 118.294 5.14222 125.09C11.1374 131.886 21.2202 131.577 27.4879 124.472C28.3054 123.546 45.746 98.5239 66.1841 75.3556C69.9992 71.0309 87.9848 86.7853 103.245 69.7952C112.783 58.6744 117.416 40.7576 114.146 25.621ZM17.9501 118.603C14.135 118.603 11.1374 115.205 11.1374 110.88C11.1374 106.247 14.135 102.849 17.9501 102.849C21.7652 102.849 24.7628 106.247 24.7628 110.571C24.7628 114.896 21.7652 118.603 17.9501 118.603Z" fill="#FF9100"/>
</svg>
