<svg width="199" height="200" viewBox="0 0 199 200" fill="none" xmlns="http://www.w3.org/2000/svg">
<path d="M197.185 39.4169L155.936 80.2882C155.936 80.2882 143.609 80.2882 131.282 67.9317C118.955 55.5753 118.955 43.2189 118.955 43.2189L160.203 1.87234C136.971 -3.83063 108.998 3.77333 91.9296 20.8822C66.327 46.5456 89.0849 79.3377 82.4472 85.9911C46.4138 123.536 9.4321 152.051 8.48385 153.476C-2.421 164.407 -2.89512 181.991 7.5356 192.447C17.9663 202.902 35.5089 202.427 46.4138 191.496C47.8361 190.07 78.1801 151.575 113.739 115.932C120.377 109.278 151.669 133.516 178.22 107.377C194.815 90.2683 202.875 62.704 197.185 39.4169ZM29.8194 182.466C23.1817 182.466 17.9663 177.239 17.9663 170.585C17.9663 163.456 23.1817 158.229 29.8194 158.229C36.4572 158.229 41.6725 163.456 41.6725 170.11C41.6725 176.763 36.4572 182.466 29.8194 182.466Z" fill="#FAFCFC"/>
</svg>
